# AST/ASF file generated using VICON BodyLanguage
# -----------------------------------------------
:version 1.10
:name VICON
:units
  mass 1.0
  length 0.45
  angle deg
:documentation
   .ast/.asf automatically generated from VICON data using
   VICON BodyBuilder and BodyLanguage model FoxedUp or BRILLIANT.MOD
:root
   order TX TY TZ RX RY RZ
   axis XYZ
   position 0 0 0  
   orientation 0 0 0 
:bonedata
  begin
     id 1 
     name lhipjoint
     direction 0.558404 -0.748506 0.357664 
     length 2.4234 
     axis 0 0 0  XYZ
  end
  begin
     id 2 
     name lfemur
     direction 0.34202 -0.939693 0  
     length 7.14567  
     axis 0 0 20  XYZ
    dof rx ry rz
    limits (-160.0 20.0)
           (-70.0 70.0)
           (-60.0 70.0)
  end
  begin
     id 3 
     name ltibia
     direction 0.34202 -0.939693 0   
     length 8.13956   
     axis 0 0 20   XYZ
    dof rx
    limits (-10.0 170.0)
  end
  begin
     id 4 
     name lfoot
     direction 0.0791314 -0.217412 0.972867   
     length 2.00134   
     axis -90 7.62852e-016 20   XYZ
    dof rx rz
    limits (-45.0 90.0)
           (-70.0 20.0)
  end
  begin
     id 5 
     name ltoes
     direction 1.53547e-011 -4.21922e-011 1   
     length 1.00735   
     axis -90 7.62852e-016 20   XYZ
    dof rx
    limits (-90.0 20.0)
  end
  begin
     id 6 
     name rhipjoint
     direction -0.496392 -0.78327 0.374276   
     length 2.31584  
     axis 0 0 0  XYZ 
  end
  begin
     id 7 
     name rfemur
     direction -0.34202 -0.939693 0   
     length 7.47417   
     axis 0 0 -20   XYZ
    dof rx ry rz
    limits (-160.0 20.0)
           (-70.0 70.0)
           (-70.0 60.0)
  end
  begin
     id 8 
     name rtibia
     direction -0.34202 -0.939693 0   
     length 7.69071   
     axis 0 0 -20   XYZ
    dof rx
    limits (-10.0 170.0)
 end
 begin
     id 9 
     name rfoot
     direction -0.103069 -0.28318 0.953512   
     length 2.16135  
     axis -90 -7.62852e-016 -20   XYZ
    dof rx rz
    limits (-45.0 90.0)
           (-20.0 70.0)
  end
  begin
     id 10 
     name rtoes
     direction -1.53581e-011 -4.21904e-011 1   
     length 1.07867   
     axis -90 -7.62852e-016 -20   XYZ
    dof rx
    limits (-90.0 20.0)
  end
  begin
     id 11 
     name lowerback
     direction -0.0258961 0.994776 -0.0987407   
     length 2.19412   
     axis 0 0 0   XYZ
    dof rx ry rz
    limits (-20.0 45.0)
           (-30.0 30.0)
           (-30.0 30.0)
  end
  begin
     id 12 
     name upperback
     direction 0.0402454 0.999185 0.00320666   
     length 2.18445   
     axis 0 0 0   XYZ
    dof rx ry rz
    limits (-20.0 45.0)
           (-30.0 30.0)
           (-30.0 30.0)
  end
  begin
     id 13 
     name thorax
     direction 0.0519376 0.997415 0.0496558   
     length 2.21487   
     axis 0 0 0   XYZ
    dof rx ry rz
    limits (-20.0 45.0)
           (-30.0 30.0)
           (-30.0 30.0)
  end
  begin
     id 14 
     name lowerneck
     direction -0.0921276 0.983211 0.157506   
     length 1.61201   
     axis 0 0 0   XYZ
    dof rx ry rz
    limits (-20.0 45.0)
           (-30.0 30.0)
           (-30.0 30.0)
  end
  begin
     id 15 
     name upperneck
     direction 0.0820814 0.98162 -0.172292   
     length 1.65275   
     axis 0 0 0   XYZ
    dof rx ry rz
    limits (-20.0 45.0)
           (-30.0 30.0)
           (-30.0 30.0)
  end
  begin
     id 16
     name head
     direction 0.0336554 0.996413 -0.0776455  
     length 1.66415  
     axis 0 0 0   XYZ
    dof rx ry rz
    limits (-20.0 45.0)
           (-30.0 30.0)
           (-30.0 30.0)
  end
  begin
     id 17 
     name lclavicle
     direction 0.94696 0.284418 -0.149576  
     length 3.41447  
     axis 0 0 0   XYZ
    dof ry rz
    limits (-20.0 10.0)
           (0.0 20.0)
  end
  begin
     id 18 
     name lhumerus
     direction 1 -0.000130264 -9.81312e-005   
     length 5.19964   
     axis 180 -30 -90   XYZ
    dof rx ry rz
    limits (-60.0 90.0)
           (-90.0 90.0)
           (-90.0 90.0)
  end
  begin
     id 19
     name lradius
     direction 1 -4.48961e-011 1.43854e-026   
     length 3.32189   
     axis 180 -30 -90   XYZ
    dof rx
    limits (-10.0 170.0)
  end
  begin
     id 20
     name lwrist
     direction 1 -4.48958e-011 3.1502e-026   
     length 1.66095   
     axis -1.97692e-014 90 90   XYZ
    dof ry
    limits (-180.0 0.0)
 end
  begin
     id 21 
     name lhand
     direction 1 -4.48927e-011 6.3004e-026   
     length 0.645616   
     axis -4.02019e-014 90 90   XYZ
    dof rx rz
    limits (-90.0 90.0)
           (-45.0 45.0)
  end
  begin
     id 22 
     name lfingers
     direction 1 -4.4904e-011 1.26008e-025   
     length 0.520512   
     axis -8.04039e-014 90 90   XYZ
    dof rx
    limits (0.0 90.0)
  end
  begin
     id 23
     name lthumb
     direction 0.707107 -6.34947e-011 0.707107   
     length 0.747354   
     axis -90 45 2.85299e-015   XYZ
    dof rx rz
    limits (-45.0 45.0)
           (-45.0 45.0)
  end
  begin
     id 24 
     name rclavicle
     direction -0.909391 0.383475 -0.161107   
     length 3.25176  
     axis 0 0 0   XYZ 
    dof ry rz
    limits (-10.0 20.0)
           (-20.0 0.0)
  end
  begin
     id 25 
     name rhumerus
     direction -1 -4.48965e-011 -1.81384e-027  
     length 5.6595   
     axis 180 30 90   XYZ
    dof rx ry rz
    limits (-90.0 60.0)
           (-90.0 90.0)
           (-90.0 90.0)
  end
  begin
     id 26 
     name rradius
     direction -1 -4.48996e-011 -8.09397e-027   
     length 3.37604   
     axis 180 30 90   XYZ
    dof rx
    limits (-10.0 170.0)
  end
  begin
     id 27 
     name rwrist
     direction -1 -4.48927e-011 -1.56669e-026   
     length 1.68802   
     axis 1.21142e-014 -90 -90   XYZ
    dof ry
    limits (-180.0 0.0)
  end
  begin
     id 28
     name rhand
     direction -1 -4.48912e-011 -3.13339e-026   
     length 0.824702   
     axis 1.99937e-014 -90 -90   XYZ
    dof rx rz
    limits (-90.0 90.0)
           (-45.0 45.0)
  end
  begin
     id 29
     name rfingers
     direction -1 -4.49011e-011 -6.26677e-026   
     length 0.664896   
     axis 3.99874e-014 -90 -90   XYZ
    dof rx
    limits (0.0 90.0)
  end
  begin
     id 30
     name rthumb
     direction -0.707107 -6.34931e-011 0.707107   
     length 0.954662   
     axis -90 -45 -2.85299e-015   XYZ
    dof rx rz
    limits (-45.0 45.0)
           (-45.0 45.0)
  end
:hierarchy
  begin
    root lhipjoint rhipjoint lowerback
    lhipjoint lfemur
    lfemur ltibia
    ltibia lfoot
    lfoot ltoes
    rhipjoint rfemur
    rfemur rtibia
    rtibia rfoot
    rfoot rtoes
    lowerback upperback
    upperback thorax
    thorax lowerneck lclavicle rclavicle
    lowerneck upperneck
    upperneck head
    lclavicle lhumerus
    lhumerus lradius
    lradius lwrist
    lwrist lhand lthumb
    lhand lfingers
    rclavicle rhumerus
    rhumerus rradius
    rradius rwrist
    rwrist rhand rthumb
    rhand rfingers
  end

#!OML:ASF F:\VICON\USERDATA\INSTALL\rory3\rory3.ASF
:FULLY-SPECIFIED
:DEGREES
74
root 10.3258 17.7647 -18.1773 7.82618 -38.0062 -8.41232
lowerback 3.46046 -0.464035 -1.19477
upperback -2.03252 -0.543884 4.48279
thorax -3.99366 -0.184906 5.37385
lowerneck -11.1291 -8.32806 -17.5744
upperneck 17.5471 -10.9281 13.2749
head 9.0503 -5.21273 6.12904
rclavicle -1.22396e-014 1.63003e-014
rhumerus -39.8332 -21.2839 -67.1159
rradius 30.515
rwrist -13.7358
rhand -10.4581 16.9309
rfingers 7.12502
rthumb 15.5424 -12.4645
lclavicle -1.22396e-014 1.63003e-014
lhumerus -34.7285 23.739 75.1401
lradius 23.7442
lwrist -14.76
lhand -1.24867 31.5653
lfingers 7.12502
lthumb 24.3938 60.0325
rfemur -14.5459 5.50206 23.827
rtibia 37.4308
rfoot -20.3108 -10.4595
rtoes 12.5279
lfemur -12.1343 0.401993 -15.9912
ltibia 37.6163
lfoot -24.7663 10.7269
ltoes 4.53
75
root 10.3261 17.7631 -18.1777 7.69301 -38.1416 -8.21538
lowerback 3.43875 -0.48247 -1.39438
upperback -1.97812 -0.581243 4.44538
thorax -3.91961 -0.20053 5.44938
lowerneck -11.0893 -8.29293 -17.3714
upperneck 17.4378 -10.8523 13.0023
head 8.96377 -5.18692 6.00718
rclavicle -1.97999e-014 -2.98177e-014
rhumerus -39.7298 -21.1947 -67.1911
rradius 30.4793
rwrist -13.9405
rhand -10.3167 16.8254
rfingers 7.12502
rthumb 15.6786 -12.5593
lclavicle -1.97999e-014 -2.98177e-014
lhumerus -34.694 23.8641 75.0619
lradius 23.6673
lwrist -14.6853
lhand -1.15202 31.6932
lfingers 7.12502
lthumb 24.4865 60.1479
rfemur -14.5502 5.53601 23.6411
rtibia 37.4545
rfoot -20.2354 -10.4737
rtoes 11.2771
lfemur -12.068 0.441343 -16.1906
ltibia 37.574
lfoot -24.7904 10.7509
ltoes 4.9587
76
root 10.3263 17.7612 -18.1762 7.62614 -38.2492 -8.15259
lowerback 3.38368 -0.412661 -1.38541
upperback -1.90689 -0.490656 4.40184
thorax -3.82394 -0.15877 5.38982
lowerneck -11.0246 -8.32915 -17.4305
upperneck 17.3549 -10.9007 13.0342
head 8.93767 -5.21231 6.02126
rclavicle -3.18366e-014 4.77083e-015
rhumerus -39.7303 -21.36 -67.1064
rradius 30.4634
rwrist -14.0535
rhand -10.6096 16.5837
rfingers 7.12502
rthumb 15.3965 -12.823
lclavicle -3.18366e-014 4.77083e-015
lhumerus -34.4654 23.7738 75.1356
lradius 23.4579
lwrist -14.8011
lhand -0.96032 31.8418
lfingers 7.12502
lthumb 24.6702 60.2716
rfemur -14.533 5.50186 23.5631
rtibia 37.475
rfoot -20.2078 -10.3386
rtoes 11.0037
lfemur -11.9961 0.435892 -16.2834
ltibia 37.5597
lfoot -24.7874 10.9263
ltoes 4.83292
77
root 10.3274 17.7614 -18.1771 7.50353 -38.2789 -7.98367
lowerback 3.39996 -0.375298 -1.46341
upperback -1.88206 -0.446168 4.34363
thorax -3.81174 -0.135511 5.36984
lowerneck -11.087 -8.35918 -17.5326
upperneck 17.4063 -10.9436 13.1527
head 8.98754 -5.22711 6.07359
rclavicle 1.14938e-014 -1.74931e-014
rhumerus -39.7779 -21.5049 -67.0218
rradius 30.4539
rwrist -14.1039
rhand -10.7787 16.5782
rfingers 7.12502
rthumb 15.2337 -12.8409
lclavicle 1.14938e-014 -1.74931e-014
lhumerus -34.3457 23.6904 75.1769
lradius 23.3439
lwrist -14.9042
lhand -0.844556 31.947
lfingers 7.12502
lthumb 24.7812 60.3615
rfemur -14.534 5.45282 23.4027
rtibia 37.5216
rfoot -20.2175 -10.2375
rtoes 11.5724
lfemur -11.9479 0.400902 -16.4497
ltibia 37.5134
lfoot -24.7191 11.1188
ltoes 4.41664
78
root 10.3281 17.7623 -18.185 7.47163 -38.2498 -7.86784
lowerback 3.48386 -0.421986 -1.64701
upperback -1.94436 -0.514845 4.37554
thorax -3.9158 -0.161498 5.51594
lowerneck -11.1043 -8.30348 -17.5328
upperneck 17.4801 -10.8572 13.0951
head 8.99743 -5.1916 6.06691
rclavicle 1.66735e-014 -5.56597e-015
rhumerus -39.852 -21.2312 -67.0163
rradius 30.5392
rwrist -14.3695
rhand -10.6316 16.7086
rfingers 7.12502
rthumb 15.3754 -12.6997
lclavicle 1.66735e-014 -5.56597e-015
lhumerus -34.4495 23.7456 75.1338
lradius 23.337
lwrist -14.8481
lhand -0.784166 32.177
lfingers 7.12502
lthumb 24.8391 60.5835
rfemur -14.6092 5.48463 23.3229
rtibia 37.573
rfoot -20.2611 -10.2716
rtoes 12.1837
lfemur -12.0042 0.51994 -16.5091
ltibia 37.4703
lfoot -24.6393 11.0043
ltoes 4.20011
79
root 10.3281 17.7623 -18.1876 7.43958 -38.3063 -7.76177
lowerback 3.48323 -0.425191 -1.78967
upperback -1.96554 -0.525601 4.38323
thorax -3.93549 -0.162095 5.60695
lowerneck -11.052 -8.2337 -17.5111
upperneck 17.5328 -10.7711 13.0631
head 8.98753 -5.15544 6.06745
rclavicle -5.03807e-014 1.90833e-014
rhumerus -39.9206 -20.967 -67.0237
rradius 30.6388
rwrist -14.5653
rhand -10.5249 16.751
rfingers 7.12502
rthumb 15.4782 -12.6494
lclavicle -5.03807e-014 1.90833e-014
lhumerus -34.4716 23.7624 75.1275
lradius 23.2859
lwrist -14.8329
lhand -0.714733 32.1384
lfingers 7.12502
lthumb 24.9056 60.5357
rfemur -14.6835 5.54912 23.2277
rtibia 37.6467
rfoot -20.325 -10.2638
rtoes 12.3694
lfemur -12.0082 0.588627 -16.5951
ltibia 37.4057
lfoot -24.624 10.8912
ltoes 4.44531
80
root 10.3286 17.7633 -18.1881 7.35909 -38.3325 -7.52046
lowerback 3.3609 -0.403043 -1.94086
upperback -1.90845 -0.507613 4.27802
thorax -3.80822 -0.153613 5.57757
lowerneck -11.1656 -8.23388 -17.333
upperneck 17.5935 -10.7818 13.014
head 9.01694 -5.14894 6.01693
rclavicle -6.84704e-014 -4.05521e-014
rhumerus -39.8683 -21.0009 -67.1278
rradius 30.6677
rwrist -14.5461
rhand -10.4816 16.7968
rfingers 7.12502
rthumb 15.5198 -12.6004
lclavicle -6.84704e-014 -4.05521e-014
lhumerus -34.203 23.608 75.1684
lradius 23.1455
lwrist -14.826
lhand -0.665014 31.7818
lfingers 7.12502
lthumb 24.9533 60.1725
rfemur -14.7927 5.5007 22.9927
rtibia 37.7046
rfoot -20.3555 -10.2021
rtoes 12.2978
lfemur -12.0603 0.543611 -16.8243
ltibia 37.362
lfoot -24.6073 10.8703
ltoes 4.68532
